PathFileType	3	(X/Y/Z)	D:\VICON_DB\Goncalves\Pilot01\09-03-2026\static_01.trc
DataRate	CameraRate	NumFrames	NumMarkers	Units	OrigDataRate	OrigDataStartFrame	OrigNumFrames
200.0	200.0	4	34	mm	200.0	201	321	
Frame#	Time	LASI			RASI			LPSI			RPSI			LTHI			LTHAP			LTHAD			LKNE			LKNM			LTIB			LTIAP			LTIAD			LANK			LMED			LHEE			LTOE			LFMH			LSMH			LVMH			RTHI			RTHAP			RTHAD			RKNE			RKNM			RTIB			RTIAP			RTIAD			RANK			RMED			RHEE			RTOE			RFMH			RSMH			RVMH			
		X1	Y1	Z1	X2	Y2	Z2	X3	Y3	Z3	X4	Y4	Z4	X5	Y5	Z5	X6	Y6	Z6	X7	Y7	Z7	X8	Y8	Z8	X9	Y9	Z9	X10	Y10	Z10	X11	Y11	Z11	X12	Y12	Z12	X13	Y13	Z13	X14	Y14	Z14	X15	Y15	Z15	X16	Y16	Z16	X17	Y17	Z17	X18	Y18	Z18	X19	Y19	Z19	X20	Y20	Z20	X21	Y21	Z21	X22	Y22	Z22	X23	Y23	Z23	X24	Y24	Z24	X25	Y25	Z25	X26	Y26	Z26	X27	Y27	Z27	X28	Y28	Z28	X29	Y29	Z29	X30	Y30	Z30	X31	Y31	Z31	X32	Y32	Z32	X33	Y33	Z33	X34	Y34	Z34	
201	1	118.58751	903.922	-1062.729	113.84938	904.59808	-1327.5513	297.302	956.37006	-1183.6201	308.8804	954.34686	-1228.7766	125.38363	694.07037	-1030.7603	142.90045	767.89227	-1017.0723	169.56618	629.9259	-1006.9952	222.17117	474.76785	-1023.7234	198.70665	464.91953	-1151.8738	259.20242	281.53711	-1004.1708	201.89838	357.17798	-1059.4396	217.18283	254.87172	-1032.0391	272.94913	70.145821	-1027.3746	239.36778	81.120338	-1107.9254	315.03848	61.710457	-1080.505	191.30505	71.860199	-1047.2982	134.13034	44.933964	-1072.9042	133.78522	39.283588	-1032.7247	149.22234	25.51685	-992.89001	157.99333	626.40356	-1380.0415	121.60466	752.28076	-1356.1053	105.35455	660.53564	-1334.1731	206.49504	490.66644	-1363.6801	204.66187	433.90771	-1243.6312	226.52623	296.36255	-1382.7943	187.17654	346.22961	-1327.6376	192.83855	264.93054	-1330.6005	269.10291	62.149185	-1355.8938	232.95598	90.709816	-1275.213	305.09387	57.93248	-1314.0111	176.6852	69.079277	-1340.2941	126.24387	49.283127	-1315.1562	123.9457	40.532326	-1351.2677	139.85966	20.635303	-1388.8812
202	1.005	118.50735	903.93585	-1062.7249	113.69869	904.57086	-1327.5848	297.47601	956.38605	-1183.2401	308.78067	954.34131	-1228.8182	125.31692	694.05981	-1030.7424	142.84068	767.88086	-1017.0553	169.50317	629.91467	-1006.9811	222.12552	474.76227	-1023.7192	198.63054	464.91696	-1151.8485	259.18576	281.54813	-1004.1664	201.83455	357.16235	-1059.4354	217.14108	254.86681	-1032.0533	272.91171	70.133736	-1027.4088	239.33823	81.14698	-1107.9365	315.02902	61.723331	-1080.5156	191.17593	71.863876	-1047.35	134.12529	44.94799	-1072.8939	133.78062	39.286491	-1032.7124	149.22345	25.518787	-992.88098	157.87926	626.35974	-1380.0328	121.51172	752.21692	-1356.0787	105.25137	660.53363	-1334.1478	206.39105	490.65945	-1363.6666	204.56508	433.9339	-1243.5973	226.4575	296.35132	-1382.7529	187.09334	346.22046	-1327.624	192.78314	264.89639	-1330.5599	269.10022	62.150696	-1355.868	232.94719	90.645744	-1275.2245	305.10492	57.933842	-1313.9928	176.67432	69.087753	-1340.267	126.22991	49.277195	-1315.1566	123.92063	40.550049	-1351.2795	139.81218	20.670027	-1388.9304
203	1.01	118.45351	903.93903	-1062.6932	113.64525	904.57159	-1327.4862	297.60403	956.448	-1183.14	308.68878	954.35266	-1228.8368	125.25466	694.05994	-1030.7247	142.76923	767.88477	-1017.0591	169.42398	629.91107	-1006.9775	222.0741	474.76193	-1023.7235	198.55957	464.90903	-1151.8246	259.13562	281.54306	-1004.1766	201.85223	357.3064	-1059.4515	217.11807	254.86305	-1032.0371	272.8631	70.154915	-1027.3427	239.34961	81.144913	-1107.9255	315.02365	61.710392	-1080.5077	191.15646	71.866875	-1047.304	134.1068	44.940475	-1072.8928	133.78217	39.289204	-1032.7076	149.2103	25.538847	-992.86664	157.77625	626.36438	-1379.9841	121.38588	752.23676	-1356.0743	105.15704	660.52777	-1334.1106	206.26184	490.65921	-1363.6824	204.44437	433.95343	-1243.5999	226.36275	296.30618	-1382.7096	187.0071	346.22055	-1327.5912	192.67975	264.89224	-1330.5625	269.09155	62.161316	-1355.8597	233.05865	90.423401	-1275.3323	305.09799	57.930061	-1313.9846	176.66275	69.067467	-1340.2411	126.22625	49.257404	-1315.1453	123.90293	40.548244	-1351.2885	139.80368	20.679117	-1388.9214
204	1.015	118.40141	903.92859	-1062.6689	113.48704	904.52545	-1327.5284	297.832	956.51605	-1182.63	308.61841	954.36182	-1228.8496	125.19115	694.0578	-1030.7203	142.70959	767.87793	-1017.0558	169.36688	629.90295	-1006.967	222.02394	474.76379	-1023.7173	198.50064	464.90646	-1151.8035	259.13382	281.55124	-1004.176	201.7458	357.17737	-1059.4218	217.09239	254.85721	-1032.038	272.93192	70.093628	-1027.4207	239.3493	81.137871	-1107.9443	315.01175	61.738029	-1080.5135	191.23315	71.820419	-1047.3195	134.10478	44.94389	-1072.8862	133.77464	39.296391	-1032.7006	149.21901	25.543581	-992.8551	157.76334	626.25433	-1379.9751	121.3045	752.22528	-1356.0626	105.04603	660.55029	-1334.1031	206.13252	490.62817	-1363.6853	204.39153	433.94223	-1243.5709	226.25432	296.31161	-1382.7196	186.93616	346.1868	-1327.5825	192.62617	264.87216	-1330.5264	269.0871	62.164516	-1355.8472	232.96223	90.703659	-1275.1995	305.06387	57.96558	-1314.0305	176.63536	69.035507	-1340.262	126.15566	49.262863	-1315.2179	123.90052	40.536789	-1351.2833	139.78455	20.689465	-1388.9221
